<svg id="svg" xmlns="http://www.w3.org/2000/svg" xmlns:xlink="http://www.w3.org/1999/xlink" width="400" height="400" viewBox="0, 0, 400,400"><g id="svgg"><path id="path0" d="M182.500 0.273 C 180.685 0.360,179.200 0.605,179.200 0.816 C 179.200 1.027,178.390 1.200,177.400 1.200 C 176.410 1.200,175.600 1.380,175.600 1.600 C 175.600 1.820,174.700 2.000,173.600 2.000 C 172.500 2.000,171.600 2.180,171.600 2.400 C 171.600 2.620,170.880 2.800,170.000 2.800 C 169.120 2.800,168.400 2.980,168.400 3.200 C 168.400 3.420,167.680 3.600,166.800 3.600 C 165.920 3.600,165.200 3.780,165.200 4.000 C 165.200 4.220,164.660 4.400,164.000 4.400 C 163.340 4.400,162.800 4.580,162.800 4.800 C 162.800 5.020,162.260 5.200,161.600 5.200 C 160.940 5.200,160.400 5.380,160.400 5.600 C 160.400 5.820,159.950 6.000,159.400 6.000 C 158.850 6.000,158.400 6.180,158.400 6.400 C 158.400 6.620,157.860 6.800,157.200 6.800 C 156.540 6.800,156.000 6.980,156.000 7.200 C 156.000 7.420,155.460 7.600,154.800 7.600 C 154.140 7.600,153.600 7.780,153.600 8.000 C 153.600 8.220,153.240 8.400,152.800 8.400 C 152.360 8.400,152.000 8.580,152.000 8.800 C 152.000 9.020,151.460 9.200,150.800 9.200 C 150.140 9.200,149.600 9.364,149.600 9.565 C 149.600 9.766,148.880 10.051,148.000 10.200 C 147.120 10.349,146.400 10.601,146.400 10.761 C 146.400 10.920,145.770 11.298,145.000 11.600 C 144.230 11.902,143.600 12.296,143.600 12.475 C 143.600 12.654,143.240 12.800,142.800 12.800 C 142.360 12.800,142.000 12.980,142.000 13.200 C 142.000 13.420,141.640 13.600,141.200 13.600 C 140.760 13.600,140.400 13.780,140.400 14.000 C 140.400 14.220,140.040 14.400,139.600 14.400 C 139.160 14.400,138.800 14.580,138.800 14.800 C 138.800 15.020,138.480 15.200,138.088 15.200 C 137.697 15.200,137.117 15.560,136.800 16.000 C 136.483 16.440,135.903 16.800,135.512 16.800 C 135.120 16.800,134.800 16.980,134.800 17.200 C 134.800 17.420,134.480 17.600,134.088 17.600 C 133.697 17.600,133.117 17.960,132.800 18.400 C 132.483 18.840,131.943 19.200,131.600 19.200 C 131.257 19.200,130.717 19.560,130.400 20.000 C 130.083 20.440,129.543 20.800,129.200 20.800 C 128.857 20.800,128.317 21.160,128.000 21.600 C 127.683 22.040,127.265 22.400,127.072 22.400 C 126.879 22.400,126.217 22.940,125.600 23.600 C 124.983 24.260,124.263 24.800,124.000 24.800 C 123.737 24.800,123.017 25.340,122.400 26.000 C 121.783 26.660,120.995 27.200,120.647 27.200 C 120.299 27.200,118.845 28.370,117.415 29.800 C 115.985 31.230,114.620 32.400,114.381 32.400 C 114.143 32.400,113.062 33.345,111.979 34.500 C 110.896 35.655,109.468 37.180,108.805 37.889 C 108.142 38.597,107.600 39.374,107.600 39.615 C 107.600 40.074,104.312 43.379,102.851 44.388 C 102.383 44.712,102.000 45.225,102.000 45.528 C 102.000 45.831,101.460 46.583,100.800 47.200 C 100.140 47.817,99.600 48.537,99.600 48.800 C 99.600 49.063,99.060 49.783,98.400 50.400 C 97.740 51.017,97.200 51.769,97.200 52.072 C 97.200 52.375,96.840 52.883,96.400 53.200 C 95.960 53.517,95.600 54.031,95.600 54.341 C 95.600 54.652,95.269 55.197,94.864 55.553 C 94.459 55.909,94.006 56.695,93.856 57.300 C 93.707 57.905,93.408 58.400,93.192 58.400 C 92.977 58.400,92.800 58.760,92.800 59.200 C 92.800 59.640,92.620 60.000,92.400 60.000 C 92.180 60.000,92.000 60.230,92.000 60.512 C 92.000 60.793,91.640 61.283,91.200 61.600 C 90.760 61.917,90.400 62.497,90.400 62.888 C 90.400 63.280,90.220 63.600,90.000 63.600 C 89.780 63.600,89.600 63.960,89.600 64.400 C 89.600 64.840,89.420 65.200,89.200 65.200 C 88.980 65.200,88.800 65.560,88.800 66.000 C 88.800 66.440,88.620 66.800,88.400 66.800 C 88.180 66.800,88.000 67.160,88.000 67.600 C 88.000 68.040,87.820 68.400,87.600 68.400 C 87.380 68.400,87.200 68.760,87.200 69.200 C 87.200 69.640,87.020 70.000,86.800 70.000 C 86.580 70.000,86.400 70.360,86.400 70.800 C 86.400 71.240,86.220 71.600,86.000 71.600 C 85.780 71.600,85.600 71.960,85.600 72.400 C 85.600 72.840,85.420 73.200,85.200 73.200 C 84.980 73.200,84.800 73.560,84.800 74.000 C 84.800 74.440,84.620 74.800,84.400 74.800 C 84.180 74.800,84.000 75.340,84.000 76.000 C 84.000 76.660,83.820 77.200,83.600 77.200 C 83.380 77.200,83.200 77.470,83.200 77.800 C 83.200 78.130,83.020 78.400,82.800 78.400 C 82.580 78.400,82.400 78.940,82.400 79.600 C 82.400 80.260,82.220 80.800,82.000 80.800 C 81.780 80.800,81.600 81.340,81.600 82.000 C 81.600 82.660,81.420 83.200,81.200 83.200 C 80.980 83.200,80.800 83.740,80.800 84.400 C 80.800 85.060,80.620 85.600,80.400 85.600 C 80.180 85.600,80.000 86.140,80.000 86.800 C 80.000 87.460,79.820 88.000,79.600 88.000 C 79.380 88.000,79.200 88.540,79.200 89.200 C 79.200 89.860,79.020 90.400,78.800 90.400 C 78.580 90.400,78.400 91.105,78.400 91.967 C 78.400 92.828,78.227 93.593,78.016 93.667 C 77.805 93.740,77.509 95.285,77.359 97.100 C 77.208 98.915,76.931 100.400,76.742 100.400 C 76.554 100.400,76.400 101.300,76.400 102.400 C 76.400 103.500,76.220 104.400,76.000 104.400 C 75.769 104.400,75.600 105.667,75.600 107.400 C 75.600 109.133,75.431 110.400,75.200 110.400 C 74.940 110.400,74.800 116.000,74.800 126.400 C 74.800 136.800,74.940 142.400,75.200 142.400 C 75.437 142.400,75.600 143.867,75.600 146.000 C 75.600 148.133,75.763 149.600,76.000 149.600 C 76.229 149.600,76.400 150.800,76.400 152.400 C 76.400 153.940,76.554 155.200,76.743 155.200 C 76.932 155.200,77.213 157.225,77.368 159.700 C 77.524 162.175,77.819 164.260,78.025 164.333 C 78.231 164.407,78.400 165.352,78.400 166.433 C 78.400 167.515,78.580 168.400,78.800 168.400 C 79.020 168.400,79.200 169.300,79.200 170.400 C 79.200 171.500,79.380 172.400,79.600 172.400 C 79.820 172.400,80.000 173.030,80.000 173.800 C 80.000 174.570,80.180 175.200,80.400 175.200 C 80.620 175.200,80.800 175.920,80.800 176.800 C 80.800 177.680,80.980 178.400,81.200 178.400 C 81.420 178.400,81.600 179.120,81.600 180.000 C 81.600 180.880,81.780 181.600,82.000 181.600 C 82.220 181.600,82.400 182.320,82.400 183.200 C 82.400 184.080,82.580 184.800,82.800 184.800 C 83.020 184.800,83.200 185.520,83.200 186.400 C 83.200 187.280,83.380 188.000,83.600 188.000 C 83.820 188.000,84.000 188.540,84.000 189.200 C 84.000 189.860,84.180 190.400,84.400 190.400 C 84.620 190.400,84.800 191.030,84.800 191.800 C 84.800 192.570,84.980 193.200,85.200 193.200 C 85.420 193.200,85.600 193.740,85.600 194.400 C 85.600 195.060,85.780 195.600,86.000 195.600 C 86.220 195.600,86.400 196.140,86.400 196.800 C 86.400 197.460,86.580 198.000,86.800 198.000 C 87.020 198.000,87.200 198.720,87.200 199.600 C 87.200 200.480,87.380 201.200,87.600 201.200 C 87.820 201.200,88.000 201.740,88.000 202.400 C 88.000 203.060,88.180 203.600,88.400 203.600 C 88.620 203.600,88.800 204.140,88.800 204.800 C 88.800 205.460,88.980 206.000,89.200 206.000 C 89.420 206.000,89.600 206.540,89.600 207.200 C 89.600 207.860,89.780 208.400,90.000 208.400 C 90.220 208.400,90.400 208.850,90.400 209.400 C 90.400 209.950,90.580 210.400,90.800 210.400 C 91.020 210.400,91.200 210.760,91.200 211.200 C 91.200 211.640,91.380 212.000,91.600 212.000 C 91.820 212.000,92.000 212.540,92.000 213.200 C 92.000 213.860,92.180 214.400,92.400 214.400 C 92.620 214.400,92.800 214.940,92.800 215.600 C 92.800 216.260,92.957 216.800,93.148 216.800 C 93.340 216.800,93.616 217.700,93.762 218.800 C 93.908 219.900,94.201 220.800,94.414 220.800 C 94.626 220.800,94.800 221.239,94.800 221.776 C 94.800 222.313,94.980 222.864,95.200 223.000 C 95.420 223.136,95.600 223.687,95.600 224.224 C 95.600 224.761,95.780 225.200,96.000 225.200 C 96.220 225.200,96.400 225.560,96.400 226.000 C 96.400 226.440,96.580 226.800,96.800 226.800 C 97.020 226.800,97.200 227.340,97.200 228.000 C 97.200 228.660,97.380 229.200,97.600 229.200 C 97.820 229.200,98.000 229.560,98.000 230.000 C 98.000 230.440,98.180 230.800,98.400 230.800 C 98.620 230.800,98.800 231.340,98.800 232.000 C 98.800 232.660,98.980 233.200,99.200 233.200 C 99.420 233.200,99.600 233.560,99.600 234.000 C 99.600 234.440,99.780 234.800,100.000 234.800 C 100.220 234.800,100.400 235.160,100.400 235.600 C 100.400 236.040,100.580 236.400,100.800 236.400 C 101.020 236.400,101.200 236.940,101.200 237.600 C 101.200 238.260,101.380 238.800,101.600 238.800 C 101.820 238.800,102.000 239.160,102.000 239.600 C 102.000 240.040,102.180 240.400,102.400 240.400 C 102.620 240.400,102.800 240.670,102.800 241.000 C 102.800 241.330,102.980 241.600,103.200 241.600 C 103.420 241.600,103.600 242.140,103.600 242.800 C 103.600 243.460,103.780 244.000,104.000 244.000 C 104.220 244.000,104.400 244.360,104.400 244.800 C 104.400 245.240,104.580 245.600,104.800 245.600 C 105.020 245.600,105.200 245.960,105.200 246.400 C 105.200 246.840,105.380 247.200,105.600 247.200 C 105.820 247.200,106.000 247.560,106.000 248.000 C 106.000 248.440,106.180 248.800,106.400 248.800 C 106.620 248.800,106.800 249.340,106.800 250.000 C 106.800 250.660,106.980 251.200,107.200 251.200 C 107.420 251.200,107.600 251.560,107.600 252.000 C 107.600 252.440,107.780 252.800,108.000 252.800 C 108.220 252.800,108.400 253.160,108.400 253.600 C 108.400 254.040,108.580 254.400,108.800 254.400 C 109.020 254.400,109.200 254.760,109.200 255.200 C 109.200 255.640,109.360 256.000,109.555 256.000 C 109.751 256.000,110.029 256.630,110.174 257.400 C 110.318 258.170,110.608 258.800,110.818 258.800 C 111.028 258.800,111.200 259.160,111.200 259.600 C 111.200 260.040,111.380 260.400,111.600 260.400 C 111.820 260.400,112.000 260.760,112.000 261.200 C 112.000 261.640,112.180 262.000,112.400 262.000 C 112.620 262.000,112.800 262.540,112.800 263.200 C 112.800 263.860,112.980 264.400,113.200 264.400 C 113.420 264.400,113.600 264.760,113.600 265.200 C 113.600 265.640,113.780 266.000,114.000 266.000 C 114.220 266.000,114.400 266.360,114.400 266.800 C 114.400 267.240,114.580 267.600,114.800 267.600 C 115.020 267.600,115.200 267.960,115.200 268.400 C 115.200 268.840,115.380 269.200,115.600 269.200 C 115.820 269.200,116.000 269.560,116.000 270.000 C 116.000 270.440,116.180 270.800,116.400 270.800 C 116.620 270.800,116.800 271.160,116.800 271.600 C 116.800 272.040,116.980 272.400,117.200 272.400 C 117.420 272.400,117.600 272.760,117.600 273.200 C 117.600 273.640,117.780 274.000,118.000 274.000 C 118.220 274.000,118.400 274.270,118.400 274.600 C 118.400 274.930,118.580 275.200,118.800 275.200 C 119.020 275.200,119.200 275.520,119.200 275.912 C 119.200 276.303,119.560 276.883,120.000 277.200 C 120.440 277.517,120.800 278.097,120.800 278.488 C 120.800 278.880,120.980 279.200,121.200 279.200 C 121.420 279.200,121.600 279.560,121.600 280.000 C 121.600 280.440,121.780 280.800,122.000 280.800 C 122.220 280.800,122.400 281.160,122.400 281.600 C 122.400 282.040,122.580 282.400,122.800 282.400 C 123.020 282.400,123.200 282.760,123.200 283.200 C 123.200 283.640,123.380 284.000,123.600 284.000 C 123.820 284.000,124.000 284.360,124.000 284.800 C 124.000 285.240,124.180 285.600,124.400 285.600 C 124.620 285.600,124.800 285.960,124.800 286.400 C 124.800 286.840,124.980 287.200,125.200 287.200 C 125.420 287.200,125.600 287.494,125.600 287.853 C 125.600 288.212,125.936 288.797,126.346 289.153 C 126.757 289.509,127.221 290.386,127.378 291.100 C 127.535 291.815,127.829 292.400,128.032 292.400 C 128.234 292.400,128.400 292.760,128.400 293.200 C 128.400 293.640,128.580 294.000,128.800 294.000 C 129.020 294.000,129.200 294.360,129.200 294.800 C 129.200 295.240,129.380 295.600,129.600 295.600 C 129.820 295.600,130.000 295.920,130.000 296.312 C 130.000 296.703,130.360 297.283,130.800 297.600 C 131.240 297.917,131.600 298.497,131.600 298.888 C 131.600 299.280,131.780 299.600,132.000 299.600 C 132.220 299.600,132.400 299.960,132.400 300.400 C 132.400 300.840,132.580 301.200,132.800 301.200 C 133.020 301.200,133.200 301.520,133.200 301.912 C 133.200 302.303,133.560 302.883,134.000 303.200 C 134.440 303.517,134.800 304.097,134.800 304.488 C 134.800 304.880,134.980 305.200,135.200 305.200 C 135.420 305.200,135.600 305.560,135.600 306.000 C 135.600 306.440,135.780 306.800,136.000 306.800 C 136.220 306.800,136.400 307.148,136.400 307.573 C 136.400 307.998,136.760 308.460,137.200 308.600 C 137.640 308.740,138.000 309.202,138.000 309.627 C 138.000 310.052,138.180 310.400,138.400 310.400 C 138.620 310.400,138.800 310.720,138.800 311.112 C 138.800 311.503,139.160 312.083,139.600 312.400 C 140.040 312.717,140.400 313.297,140.400 313.688 C 140.400 314.080,140.580 314.400,140.800 314.400 C 141.020 314.400,141.200 314.760,141.200 315.200 C 141.200 315.640,141.380 316.000,141.600 316.000 C 141.820 316.000,142.000 316.294,142.000 316.653 C 142.000 317.012,142.331 317.597,142.736 317.953 C 143.141 318.309,143.594 319.095,143.744 319.700 C 143.893 320.305,144.192 320.800,144.408 320.800 C 144.623 320.800,144.800 321.160,144.800 321.600 C 144.800 322.040,144.980 322.400,145.200 322.400 C 145.420 322.400,145.600 322.636,145.600 322.925 C 145.600 323.213,145.960 323.836,146.400 324.308 C 146.840 324.780,147.200 325.354,147.200 325.583 C 147.200 325.812,147.380 326.000,147.600 326.000 C 147.820 326.000,148.000 326.320,148.000 326.712 C 148.000 327.103,148.360 327.683,148.800 328.000 C 149.240 328.317,149.600 328.857,149.600 329.200 C 149.600 329.543,149.960 330.083,150.400 330.400 C 150.840 330.717,151.200 331.297,151.200 331.688 C 151.200 332.080,151.380 332.400,151.600 332.400 C 151.820 332.400,152.000 332.720,152.000 333.112 C 152.000 333.503,152.360 334.083,152.800 334.400 C 153.240 334.717,153.600 335.257,153.600 335.600 C 153.600 335.943,153.960 336.483,154.400 336.800 C 154.840 337.117,155.200 337.697,155.200 338.088 C 155.200 338.480,155.380 338.800,155.600 338.800 C 155.820 338.800,156.000 339.120,156.000 339.512 C 156.000 339.903,156.360 340.483,156.800 340.800 C 157.240 341.117,157.600 341.567,157.600 341.800 C 157.600 342.033,157.960 342.483,158.400 342.800 C 158.840 343.117,159.200 343.697,159.200 344.088 C 159.200 344.480,159.377 344.800,159.592 344.800 C 159.808 344.800,160.107 345.295,160.256 345.900 C 160.406 346.505,160.859 347.291,161.264 347.647 C 161.669 348.003,162.000 348.548,162.000 348.859 C 162.000 349.169,162.360 349.683,162.800 350.000 C 163.240 350.317,163.600 350.857,163.600 351.200 C 163.600 351.543,163.960 352.083,164.400 352.400 C 164.840 352.717,165.200 353.257,165.200 353.600 C 165.200 353.943,165.560 354.483,166.000 354.800 C 166.440 355.117,166.800 355.657,166.800 356.000 C 166.800 356.343,167.160 356.883,167.600 357.200 C 168.040 357.517,168.400 357.967,168.400 358.200 C 168.400 358.433,168.760 358.883,169.200 359.200 C 169.640 359.517,170.000 360.057,170.000 360.400 C 170.000 360.743,170.360 361.283,170.800 361.600 C 171.240 361.917,171.600 362.425,171.600 362.728 C 171.600 363.031,172.140 363.783,172.800 364.400 C 173.460 365.017,174.000 365.769,174.000 366.072 C 174.000 366.375,174.360 366.883,174.800 367.200 C 175.240 367.517,175.600 368.057,175.600 368.400 C 175.600 368.743,175.960 369.283,176.400 369.600 C 176.840 369.917,177.200 370.498,177.200 370.891 C 177.200 371.284,177.650 371.997,178.200 372.475 C 178.750 372.953,179.200 373.660,179.200 374.045 C 179.200 374.431,179.560 374.860,180.000 375.000 C 180.440 375.140,180.800 375.530,180.800 375.866 C 180.800 376.203,181.340 376.983,182.000 377.600 C 182.660 378.217,183.200 378.969,183.200 379.272 C 183.200 379.575,183.560 380.083,184.000 380.400 C 184.440 380.717,184.800 381.225,184.800 381.528 C 184.800 381.831,185.340 382.583,186.000 383.200 C 186.660 383.817,187.200 384.537,187.200 384.800 C 187.200 385.063,187.740 385.783,188.400 386.400 C 189.060 387.017,189.600 387.737,189.600 388.000 C 189.600 388.263,190.140 388.983,190.800 389.600 C 191.460 390.217,192.000 390.837,192.000 390.979 C 192.000 391.120,192.450 391.686,193.000 392.236 C 193.550 392.786,194.000 393.516,194.000 393.858 C 194.000 394.199,194.540 394.983,195.200 395.600 C 195.860 396.217,196.400 396.937,196.400 397.200 C 196.400 398.097,198.847 400.000,200.000 400.000 C 201.153 400.000,203.600 398.097,203.600 397.200 C 203.600 396.937,204.140 396.217,204.800 395.600 C 205.460 394.983,206.000 394.263,206.000 394.000 C 206.000 393.737,206.540 393.017,207.200 392.400 C 207.860 391.783,208.400 391.089,208.400 390.858 C 208.400 390.626,208.850 389.986,209.400 389.436 C 209.950 388.886,210.400 388.230,210.400 387.979 C 210.400 387.727,210.940 387.017,211.600 386.400 C 212.260 385.783,212.800 385.063,212.800 384.800 C 212.800 384.537,213.340 383.817,214.000 383.200 C 214.660 382.583,215.200 381.831,215.200 381.528 C 215.200 381.225,215.560 380.717,216.000 380.400 C 216.440 380.083,216.800 379.575,216.800 379.272 C 216.800 378.969,217.340 378.217,218.000 377.600 C 218.660 376.983,219.200 376.203,219.200 375.866 C 219.200 375.530,219.560 375.140,220.000 375.000 C 220.440 374.860,220.800 374.470,220.800 374.134 C 220.800 373.797,221.340 373.017,222.000 372.400 C 222.660 371.783,223.200 371.057,223.200 370.786 C 223.200 370.516,223.531 370.003,223.936 369.647 C 224.341 369.291,224.794 368.505,224.944 367.900 C 225.093 367.295,225.392 366.800,225.608 366.800 C 225.823 366.800,226.000 366.512,226.000 366.160 C 226.000 365.809,226.540 365.017,227.200 364.400 C 227.860 363.783,228.400 363.031,228.400 362.728 C 228.400 362.425,228.760 361.917,229.200 361.600 C 229.640 361.283,230.000 360.743,230.000 360.400 C 230.000 360.057,230.360 359.517,230.800 359.200 C 231.240 358.883,231.600 358.433,231.600 358.200 C 231.600 357.967,231.960 357.517,232.400 357.200 C 232.840 356.883,233.200 356.343,233.200 356.000 C 233.200 355.657,233.560 355.117,234.000 354.800 C 234.440 354.483,234.800 353.943,234.800 353.600 C 234.800 353.257,235.160 352.717,235.600 352.400 C 236.040 352.083,236.400 351.543,236.400 351.200 C 236.400 350.857,236.760 350.317,237.200 350.000 C 237.640 349.683,238.000 349.143,238.000 348.800 C 238.000 348.457,238.360 347.917,238.800 347.600 C 239.240 347.283,239.600 346.769,239.600 346.459 C 239.600 346.148,239.931 345.603,240.336 345.247 C 240.741 344.891,241.194 344.105,241.344 343.500 C 241.493 342.895,241.792 342.400,242.008 342.400 C 242.223 342.400,242.400 342.170,242.400 341.888 C 242.400 341.607,242.760 341.117,243.200 340.800 C 243.640 340.483,244.000 339.903,244.000 339.512 C 244.000 339.120,244.180 338.800,244.400 338.800 C 244.620 338.800,244.800 338.480,244.800 338.088 C 244.800 337.697,245.160 337.117,245.600 336.800 C 246.040 336.483,246.400 335.943,246.400 335.600 C 246.400 335.257,246.760 334.717,247.200 334.400 C 247.640 334.083,248.000 333.543,248.000 333.200 C 248.000 332.857,248.360 332.317,248.800 332.000 C 249.240 331.683,249.600 331.103,249.600 330.712 C 249.600 330.320,249.780 330.000,250.000 330.000 C 250.220 330.000,250.400 329.680,250.400 329.288 C 250.400 328.897,250.760 328.317,251.200 328.000 C 251.640 327.683,252.000 327.103,252.000 326.712 C 252.000 326.320,252.180 326.000,252.400 326.000 C 252.620 326.000,252.800 325.770,252.800 325.488 C 252.800 325.207,253.160 324.717,253.600 324.400 C 254.040 324.083,254.400 323.543,254.400 323.200 C 254.400 322.857,254.760 322.317,255.200 322.000 C 255.640 321.683,256.000 321.103,256.000 320.712 C 256.000 320.320,256.180 320.000,256.400 320.000 C 256.620 320.000,256.800 319.680,256.800 319.288 C 256.800 318.897,257.150 318.325,257.577 318.017 C 258.004 317.709,258.470 316.769,258.612 315.928 C 258.754 315.088,259.034 314.400,259.235 314.400 C 259.436 314.400,259.600 314.080,259.600 313.688 C 259.600 313.297,259.960 312.717,260.400 312.400 C 260.840 312.083,261.200 311.503,261.200 311.112 C 261.200 310.720,261.380 310.400,261.600 310.400 C 261.820 310.400,262.000 310.052,262.000 309.627 C 262.000 309.202,262.360 308.740,262.800 308.600 C 263.240 308.460,263.600 307.998,263.600 307.573 C 263.600 307.148,263.780 306.800,264.000 306.800 C 264.220 306.800,264.400 306.440,264.400 306.000 C 264.400 305.560,264.580 305.200,264.800 305.200 C 265.020 305.200,265.200 304.880,265.200 304.488 C 265.200 304.097,265.560 303.517,266.000 303.200 C 266.440 302.883,266.800 302.303,266.800 301.912 C 266.800 301.520,266.980 301.200,267.200 301.200 C 267.420 301.200,267.600 300.840,267.600 300.400 C 267.600 299.960,267.780 299.600,268.000 299.600 C 268.220 299.600,268.400 299.280,268.400 298.888 C 268.400 298.497,268.760 297.917,269.200 297.600 C 269.640 297.283,270.000 296.703,270.000 296.312 C 270.000 295.920,270.180 295.600,270.400 295.600 C 270.620 295.600,270.800 295.240,270.800 294.800 C 270.800 294.360,270.980 294.000,271.200 294.000 C 271.420 294.000,271.600 293.640,271.600 293.200 C 271.600 292.760,271.780 292.400,272.000 292.400 C 272.220 292.400,272.400 292.158,272.400 291.862 C 272.400 291.566,272.760 290.998,273.200 290.600 C 273.640 290.202,274.000 289.634,274.000 289.338 C 274.000 289.042,274.164 288.800,274.365 288.800 C 274.566 288.800,274.851 288.080,275.000 287.200 C 275.149 286.320,275.434 285.600,275.635 285.600 C 275.836 285.600,276.000 285.240,276.000 284.800 C 276.000 284.360,276.180 284.000,276.400 284.000 C 276.620 284.000,276.800 283.640,276.800 283.200 C 276.800 282.760,276.980 282.400,277.200 282.400 C 277.420 282.400,277.600 282.040,277.600 281.600 C 277.600 281.160,277.780 280.800,278.000 280.800 C 278.220 280.800,278.400 280.440,278.400 280.000 C 278.400 279.560,278.580 279.200,278.800 279.200 C 279.020 279.200,279.200 278.880,279.200 278.488 C 279.200 278.097,279.560 277.517,280.000 277.200 C 280.440 276.883,280.800 276.303,280.800 275.912 C 280.800 275.520,280.980 275.200,281.200 275.200 C 281.420 275.200,281.600 274.930,281.600 274.600 C 281.600 274.270,281.780 274.000,282.000 274.000 C 282.220 274.000,282.400 273.640,282.400 273.200 C 282.400 272.760,282.580 272.400,282.800 272.400 C 283.020 272.400,283.200 272.040,283.200 271.600 C 283.200 271.160,283.380 270.800,283.600 270.800 C 283.820 270.800,284.000 270.440,284.000 270.000 C 284.000 269.560,284.180 269.200,284.400 269.200 C 284.620 269.200,284.800 268.840,284.800 268.400 C 284.800 267.960,284.980 267.600,285.200 267.600 C 285.420 267.600,285.600 267.240,285.600 266.800 C 285.600 266.360,285.780 266.000,286.000 266.000 C 286.220 266.000,286.400 265.640,286.400 265.200 C 286.400 264.760,286.580 264.400,286.800 264.400 C 287.020 264.400,287.200 264.040,287.200 263.600 C 287.200 263.160,287.380 262.800,287.600 262.800 C 287.820 262.800,288.000 262.260,288.000 261.600 C 288.000 260.940,288.180 260.400,288.400 260.400 C 288.620 260.400,288.800 260.040,288.800 259.600 C 288.800 259.160,288.946 258.800,289.125 258.800 C 289.304 258.800,289.698 258.170,290.000 257.400 C 290.302 256.630,290.680 256.000,290.839 256.000 C 290.999 256.000,291.251 255.280,291.400 254.400 C 291.549 253.520,291.834 252.800,292.035 252.800 C 292.236 252.800,292.400 252.440,292.400 252.000 C 292.400 251.560,292.580 251.200,292.800 251.200 C 293.020 251.200,293.200 250.660,293.200 250.000 C 293.200 249.340,293.380 248.800,293.600 248.800 C 293.820 248.800,294.000 248.440,294.000 248.000 C 294.000 247.560,294.180 247.200,294.400 247.200 C 294.620 247.200,294.800 246.840,294.800 246.400 C 294.800 245.960,294.980 245.600,295.200 245.600 C 295.420 245.600,295.600 245.240,295.600 244.800 C 295.600 244.360,295.780 244.000,296.000 244.000 C 296.220 244.000,296.400 243.460,296.400 242.800 C 296.400 242.140,296.580 241.600,296.800 241.600 C 297.020 241.600,297.200 241.330,297.200 241.000 C 297.200 240.670,297.380 240.400,297.600 240.400 C 297.820 240.400,298.000 240.040,298.000 239.600 C 298.000 239.160,298.180 238.800,298.400 238.800 C 298.620 238.800,298.800 238.260,298.800 237.600 C 298.800 236.940,298.980 236.400,299.200 236.400 C 299.420 236.400,299.600 236.040,299.600 235.600 C 299.600 235.160,299.780 234.800,300.000 234.800 C 300.220 234.800,300.400 234.440,300.400 234.000 C 300.400 233.560,300.580 233.200,300.800 233.200 C 301.020 233.200,301.200 232.660,301.200 232.000 C 301.200 231.340,301.380 230.800,301.600 230.800 C 301.820 230.800,302.000 230.440,302.000 230.000 C 302.000 229.560,302.180 229.200,302.400 229.200 C 302.620 229.200,302.800 228.660,302.800 228.000 C 302.800 227.340,302.980 226.800,303.200 226.800 C 303.420 226.800,303.600 226.440,303.600 226.000 C 303.600 225.560,303.780 225.200,304.000 225.200 C 304.220 225.200,304.400 224.750,304.400 224.200 C 304.400 223.650,304.580 223.200,304.800 223.200 C 305.020 223.200,305.200 222.660,305.200 222.000 C 305.200 221.340,305.380 220.800,305.600 220.800 C 305.820 220.800,306.000 220.440,306.000 220.000 C 306.000 219.560,306.180 219.200,306.400 219.200 C 306.620 219.200,306.800 218.660,306.800 218.000 C 306.800 217.340,306.980 216.800,307.200 216.800 C 307.420 216.800,307.600 216.260,307.600 215.600 C 307.600 214.940,307.757 214.400,307.948 214.400 C 308.140 214.400,308.416 213.500,308.562 212.400 C 308.708 211.300,309.001 210.400,309.214 210.400 C 309.426 210.400,309.600 209.950,309.600 209.400 C 309.600 208.850,309.780 208.400,310.000 208.400 C 310.220 208.400,310.400 207.860,310.400 207.200 C 310.400 206.540,310.580 206.000,310.800 206.000 C 311.020 206.000,311.200 205.460,311.200 204.800 C 311.200 204.140,311.380 203.600,311.600 203.600 C 311.820 203.600,312.000 203.060,312.000 202.400 C 312.000 201.740,312.180 201.200,312.400 201.200 C 312.620 201.200,312.800 200.480,312.800 199.600 C 312.800 198.720,312.980 198.000,313.200 198.000 C 313.420 198.000,313.600 197.460,313.600 196.800 C 313.600 196.140,313.780 195.600,314.000 195.600 C 314.220 195.600,314.400 195.060,314.400 194.400 C 314.400 193.740,314.580 193.200,314.800 193.200 C 315.020 193.200,315.200 192.750,315.200 192.200 C 315.200 191.650,315.380 191.200,315.600 191.200 C 315.820 191.200,316.000 190.480,316.000 189.600 C 316.000 188.720,316.180 188.000,316.400 188.000 C 316.620 188.000,316.800 187.280,316.800 186.400 C 316.800 185.520,316.980 184.800,317.200 184.800 C 317.420 184.800,317.600 184.080,317.600 183.200 C 317.600 182.320,317.780 181.600,318.000 181.600 C 318.220 181.600,318.400 180.880,318.400 180.000 C 318.400 179.120,318.580 178.400,318.800 178.400 C 319.020 178.400,319.200 177.680,319.200 176.800 C 319.200 175.920,319.380 175.200,319.600 175.200 C 319.820 175.200,320.000 174.570,320.000 173.800 C 320.000 173.030,320.180 172.400,320.400 172.400 C 320.620 172.400,320.800 171.500,320.800 170.400 C 320.800 169.300,320.980 168.400,321.200 168.400 C 321.420 168.400,321.600 167.500,321.600 166.400 C 321.600 165.300,321.780 164.400,322.000 164.400 C 322.220 164.400,322.400 163.500,322.400 162.400 C 322.400 161.300,322.580 160.400,322.800 160.400 C 323.026 160.400,323.200 159.267,323.200 157.800 C 323.200 156.333,323.374 155.200,323.600 155.200 C 323.828 155.200,324.000 154.011,324.000 152.433 C 324.000 150.576,324.164 149.612,324.500 149.500 C 325.232 149.256,325.232 104.744,324.500 104.500 C 324.190 104.397,324.000 103.584,324.000 102.367 C 324.000 101.285,323.820 100.400,323.600 100.400 C 323.380 100.400,323.200 99.500,323.200 98.400 C 323.200 97.300,323.020 96.400,322.800 96.400 C 322.580 96.400,322.400 95.770,322.400 95.000 C 322.400 94.230,322.220 93.600,322.000 93.600 C 321.780 93.600,321.600 92.880,321.600 92.000 C 321.600 91.120,321.420 90.400,321.200 90.400 C 320.980 90.400,320.800 89.860,320.800 89.200 C 320.800 88.540,320.620 88.000,320.400 88.000 C 320.180 88.000,320.000 87.460,320.000 86.800 C 320.000 86.140,319.820 85.600,319.600 85.600 C 319.380 85.600,319.200 85.060,319.200 84.400 C 319.200 83.740,319.020 83.200,318.800 83.200 C 318.580 83.200,318.400 82.660,318.400 82.000 C 318.400 81.340,318.220 80.800,318.000 80.800 C 317.780 80.800,317.600 80.260,317.600 79.600 C 317.600 78.940,317.420 78.400,317.200 78.400 C 316.980 78.400,316.800 78.130,316.800 77.800 C 316.800 77.470,316.620 77.200,316.400 77.200 C 316.180 77.200,316.000 76.660,316.000 76.000 C 316.000 75.340,315.820 74.800,315.600 74.800 C 315.380 74.800,315.200 74.440,315.200 74.000 C 315.200 73.560,315.020 73.200,314.800 73.200 C 314.580 73.200,314.400 72.840,314.400 72.400 C 314.400 71.960,314.220 71.600,314.000 71.600 C 313.780 71.600,313.600 71.240,313.600 70.800 C 313.600 70.360,313.420 70.000,313.200 70.000 C 312.980 70.000,312.800 69.640,312.800 69.200 C 312.800 68.760,312.620 68.400,312.400 68.400 C 312.180 68.400,312.000 68.040,312.000 67.600 C 312.000 67.160,311.820 66.800,311.600 66.800 C 311.380 66.800,311.200 66.440,311.200 66.000 C 311.200 65.560,311.020 65.200,310.800 65.200 C 310.580 65.200,310.400 64.840,310.400 64.400 C 310.400 63.960,310.220 63.600,310.000 63.600 C 309.780 63.600,309.600 63.240,309.600 62.800 C 309.600 62.360,309.423 62.000,309.208 62.000 C 308.992 62.000,308.702 61.550,308.564 61.000 C 308.426 60.450,308.153 60.000,307.957 60.000 C 307.760 60.000,307.600 59.680,307.600 59.288 C 307.600 58.897,307.240 58.317,306.800 58.000 C 306.360 57.683,306.000 57.143,306.000 56.800 C 306.000 56.457,305.640 55.917,305.200 55.600 C 304.760 55.283,304.400 54.743,304.400 54.400 C 304.400 54.057,304.040 53.517,303.600 53.200 C 303.160 52.883,302.800 52.375,302.800 52.072 C 302.800 51.769,302.260 51.017,301.600 50.400 C 300.940 49.783,300.400 49.063,300.400 48.800 C 300.400 48.537,299.860 47.817,299.200 47.200 C 298.540 46.583,298.000 45.831,298.000 45.528 C 298.000 45.225,297.617 44.712,297.149 44.388 C 295.680 43.373,292.400 40.072,292.400 39.609 C 292.400 39.058,292.051 38.638,288.719 35.181 C 287.245 33.652,285.847 32.400,285.612 32.400 C 285.377 32.400,284.015 31.230,282.585 29.800 C 281.155 28.370,279.701 27.200,279.353 27.200 C 279.005 27.200,278.217 26.660,277.600 26.000 C 276.983 25.340,276.191 24.800,275.840 24.800 C 275.488 24.800,275.200 24.648,275.200 24.461 C 275.200 23.872,273.730 22.400,273.141 22.400 C 272.831 22.400,272.317 22.040,272.000 21.600 C 271.683 21.160,271.143 20.800,270.800 20.800 C 270.457 20.800,269.917 20.440,269.600 20.000 C 269.283 19.560,268.743 19.200,268.400 19.200 C 268.057 19.200,267.517 18.840,267.200 18.400 C 266.883 17.960,266.303 17.600,265.912 17.600 C 265.520 17.600,265.200 17.420,265.200 17.200 C 265.200 16.980,264.880 16.800,264.488 16.800 C 264.097 16.800,263.517 16.440,263.200 16.000 C 262.883 15.560,262.303 15.200,261.912 15.200 C 261.520 15.200,261.200 15.020,261.200 14.800 C 261.200 14.580,260.840 14.400,260.400 14.400 C 259.960 14.400,259.600 14.220,259.600 14.000 C 259.600 13.780,259.330 13.600,259.000 13.600 C 258.670 13.600,258.400 13.420,258.400 13.200 C 258.400 12.980,258.166 12.800,257.880 12.800 C 257.144 12.800,255.207 11.859,255.203 11.500 C 255.201 11.335,254.840 11.200,254.400 11.200 C 253.960 11.200,253.600 11.036,253.600 10.835 C 253.600 10.634,252.880 10.349,252.000 10.200 C 251.120 10.051,250.400 9.766,250.400 9.565 C 250.400 9.364,249.860 9.200,249.200 9.200 C 248.540 9.200,248.000 9.020,248.000 8.800 C 248.000 8.580,247.640 8.400,247.200 8.400 C 246.760 8.400,246.400 8.220,246.400 8.000 C 246.400 7.780,245.860 7.600,245.200 7.600 C 244.540 7.600,244.000 7.420,244.000 7.200 C 244.000 6.980,243.460 6.800,242.800 6.800 C 242.140 6.800,241.600 6.620,241.600 6.400 C 241.600 6.180,241.150 6.000,240.600 6.000 C 240.050 6.000,239.600 5.820,239.600 5.600 C 239.600 5.380,239.060 5.200,238.400 5.200 C 237.740 5.200,237.200 5.020,237.200 4.800 C 237.200 4.580,236.660 4.400,236.000 4.400 C 235.340 4.400,234.800 4.220,234.800 4.000 C 234.800 3.780,234.080 3.600,233.200 3.600 C 232.320 3.600,231.600 3.420,231.600 3.200 C 231.600 2.980,230.880 2.800,230.000 2.800 C 229.120 2.800,228.400 2.620,228.400 2.400 C 228.400 2.180,227.590 2.000,226.600 2.000 C 225.610 2.000,224.800 1.820,224.800 1.600 C 224.800 1.380,223.915 1.200,222.833 1.200 C 221.665 1.200,220.802 1.006,220.707 0.722 C 220.548 0.245,190.405 -0.110,182.500 0.273 M206.800 60.000 C 206.800 60.226,207.933 60.400,209.400 60.400 C 210.867 60.400,212.000 60.574,212.000 60.800 C 212.000 61.020,212.720 61.200,213.600 61.200 C 214.480 61.200,215.200 61.380,215.200 61.600 C 215.200 61.820,215.920 62.000,216.800 62.000 C 217.680 62.000,218.400 62.180,218.400 62.400 C 218.400 62.620,218.940 62.800,219.600 62.800 C 220.260 62.800,220.800 62.980,220.800 63.200 C 220.800 63.420,221.340 63.600,222.000 63.600 C 222.660 63.600,223.200 63.780,223.200 64.000 C 223.200 64.220,223.560 64.400,224.000 64.400 C 224.440 64.400,224.800 64.580,224.800 64.800 C 224.800 65.020,225.340 65.200,226.000 65.200 C 226.660 65.200,227.200 65.380,227.200 65.600 C 227.200 65.820,227.470 66.000,227.800 66.000 C 228.130 66.000,228.400 66.180,228.400 66.400 C 228.400 66.620,228.760 66.800,229.200 66.800 C 229.640 66.800,230.000 66.980,230.000 67.200 C 230.000 67.420,230.360 67.600,230.800 67.600 C 231.240 67.600,231.600 67.780,231.600 68.000 C 231.600 68.220,231.920 68.400,232.312 68.400 C 232.703 68.400,233.283 68.760,233.600 69.200 C 233.917 69.640,234.457 70.000,234.800 70.000 C 235.143 70.000,235.683 70.360,236.000 70.800 C 236.317 71.240,236.857 71.600,237.200 71.600 C 237.543 71.600,238.083 71.960,238.400 72.400 C 238.717 72.840,239.215 73.200,239.506 73.200 C 239.798 73.200,240.470 73.605,240.999 74.100 C 242.419 75.428,243.139 76.000,243.389 76.000 C 243.812 76.000,250.400 82.790,250.400 83.226 C 250.400 83.466,251.120 84.354,252.000 85.200 C 252.880 86.046,253.600 86.982,253.600 87.280 C 253.600 87.579,253.960 88.083,254.400 88.400 C 254.840 88.717,255.200 89.257,255.200 89.600 C 255.200 89.943,255.560 90.483,256.000 90.800 C 256.440 91.117,256.800 91.567,256.800 91.800 C 256.800 92.033,257.160 92.483,257.600 92.800 C 258.040 93.117,258.400 93.697,258.400 94.088 C 258.400 94.480,258.580 94.800,258.800 94.800 C 259.020 94.800,259.200 95.160,259.200 95.600 C 259.200 96.040,259.364 96.400,259.565 96.400 C 259.766 96.400,260.051 97.120,260.200 98.000 C 260.349 98.880,260.634 99.600,260.835 99.600 C 261.036 99.600,261.200 100.140,261.200 100.800 C 261.200 101.460,261.380 102.000,261.600 102.000 C 261.820 102.000,262.000 102.360,262.000 102.800 C 262.000 103.240,262.180 103.600,262.400 103.600 C 262.620 103.600,262.800 104.140,262.800 104.800 C 262.800 105.460,262.980 106.000,263.200 106.000 C 263.420 106.000,263.600 106.540,263.600 107.200 C 263.600 107.860,263.780 108.400,264.000 108.400 C 264.220 108.400,264.400 109.030,264.400 109.800 C 264.400 110.570,264.580 111.200,264.800 111.200 C 265.020 111.200,265.200 112.100,265.200 113.200 C 265.200 114.300,265.380 115.200,265.600 115.200 C 265.829 115.200,266.000 116.400,266.000 118.000 C 266.000 119.600,266.171 120.800,266.400 120.800 C 266.648 120.800,266.800 123.000,266.800 126.600 C 266.800 130.200,266.648 132.400,266.400 132.400 C 266.171 132.400,266.000 133.600,266.000 135.200 C 266.000 136.800,265.829 138.000,265.600 138.000 C 265.380 138.000,265.200 138.900,265.200 140.000 C 265.200 141.100,265.020 142.000,264.800 142.000 C 264.580 142.000,264.400 142.630,264.400 143.400 C 264.400 144.170,264.220 144.800,264.000 144.800 C 263.780 144.800,263.600 145.340,263.600 146.000 C 263.600 146.660,263.420 147.200,263.200 147.200 C 262.980 147.200,262.800 147.740,262.800 148.400 C 262.800 149.060,262.620 149.600,262.400 149.600 C 262.180 149.600,262.000 149.960,262.000 150.400 C 262.000 150.840,261.820 151.200,261.600 151.200 C 261.380 151.200,261.200 151.560,261.200 152.000 C 261.200 152.440,261.043 152.800,260.852 152.800 C 260.660 152.800,260.384 153.700,260.238 154.800 C 260.092 155.900,259.799 156.800,259.586 156.800 C 259.374 156.800,259.200 157.120,259.200 157.512 C 259.200 157.903,258.840 158.483,258.400 158.800 C 257.960 159.117,257.600 159.607,257.600 159.888 C 257.600 160.170,257.420 160.400,257.200 160.400 C 256.980 160.400,256.800 160.720,256.800 161.112 C 256.800 161.503,256.440 162.083,256.000 162.400 C 255.560 162.717,255.200 163.225,255.200 163.528 C 255.200 163.831,254.660 164.583,254.000 165.200 C 253.340 165.817,252.800 166.533,252.800 166.792 C 252.800 167.051,252.080 167.954,251.200 168.800 C 250.320 169.646,249.600 170.535,249.600 170.777 C 249.600 171.432,245.310 175.600,244.636 175.600 C 244.316 175.600,243.940 175.960,243.800 176.400 C 243.660 176.840,243.386 177.200,243.191 177.200 C 242.996 177.200,242.386 177.650,241.836 178.200 C 241.286 178.750,240.630 179.200,240.379 179.200 C 240.127 179.200,239.417 179.740,238.800 180.400 C 238.183 181.060,237.431 181.600,237.128 181.600 C 236.825 181.600,236.317 181.960,236.000 182.400 C 235.683 182.840,235.103 183.200,234.712 183.200 C 234.320 183.200,234.000 183.380,234.000 183.600 C 234.000 183.820,233.680 184.000,233.288 184.000 C 232.897 184.000,232.317 184.360,232.000 184.800 C 231.683 185.240,231.103 185.600,230.712 185.600 C 230.320 185.600,230.000 185.780,230.000 186.000 C 230.000 186.220,229.640 186.400,229.200 186.400 C 228.760 186.400,228.400 186.580,228.400 186.800 C 228.400 187.020,227.950 187.200,227.400 187.200 C 226.850 187.200,226.400 187.380,226.400 187.600 C 226.400 187.820,226.040 188.000,225.600 188.000 C 225.160 188.000,224.800 188.180,224.800 188.400 C 224.800 188.620,224.440 188.800,224.000 188.800 C 223.560 188.800,223.200 188.980,223.200 189.200 C 223.200 189.420,222.660 189.600,222.000 189.600 C 221.340 189.600,220.800 189.780,220.800 190.000 C 220.800 190.220,220.080 190.400,219.200 190.400 C 218.320 190.400,217.600 190.580,217.600 190.800 C 217.600 191.020,217.060 191.200,216.400 191.200 C 215.740 191.200,215.200 191.380,215.200 191.600 C 215.200 191.820,214.300 192.000,213.200 192.000 C 212.100 192.000,211.200 192.180,211.200 192.400 C 211.200 192.631,209.933 192.800,208.200 192.800 C 206.467 192.800,205.200 192.969,205.200 193.200 C 205.200 193.446,203.200 193.600,200.000 193.600 C 196.800 193.600,194.800 193.446,194.800 193.200 C 194.800 192.969,193.533 192.800,191.800 192.800 C 190.067 192.800,188.800 192.631,188.800 192.400 C 188.800 192.180,187.900 192.000,186.800 192.000 C 185.700 192.000,184.800 191.820,184.800 191.600 C 184.800 191.380,184.260 191.200,183.600 191.200 C 182.940 191.200,182.400 191.020,182.400 190.800 C 182.400 190.580,181.680 190.400,180.800 190.400 C 179.920 190.400,179.200 190.220,179.200 190.000 C 179.200 189.780,178.840 189.600,178.400 189.600 C 177.960 189.600,177.600 189.420,177.600 189.200 C 177.600 188.980,177.060 188.800,176.400 188.800 C 175.740 188.800,175.200 188.620,175.200 188.400 C 175.200 188.180,174.930 188.000,174.600 188.000 C 174.270 188.000,174.000 187.820,174.000 187.600 C 174.000 187.380,173.460 187.200,172.800 187.200 C 172.140 187.200,171.600 187.020,171.600 186.800 C 171.600 186.580,171.240 186.400,170.800 186.400 C 170.360 186.400,170.000 186.220,170.000 186.000 C 170.000 185.780,169.680 185.600,169.288 185.600 C 168.897 185.600,168.317 185.240,168.000 184.800 C 167.683 184.360,167.103 184.000,166.712 184.000 C 166.320 184.000,166.000 183.820,166.000 183.600 C 166.000 183.380,165.680 183.200,165.288 183.200 C 164.897 183.200,164.317 182.840,164.000 182.400 C 163.683 181.960,163.175 181.600,162.872 181.600 C 162.569 181.600,161.817 181.060,161.200 180.400 C 160.583 179.740,159.890 179.200,159.659 179.200 C 159.428 179.200,158.627 178.570,157.879 177.800 C 157.131 177.030,156.309 176.400,156.052 176.400 C 155.460 176.400,150.400 171.365,150.400 170.776 C 150.400 170.535,149.680 169.646,148.800 168.800 C 147.920 167.954,147.200 167.051,147.200 166.792 C 147.200 166.533,146.660 165.817,146.000 165.200 C 145.340 164.583,144.800 163.831,144.800 163.528 C 144.800 163.225,144.440 162.717,144.000 162.400 C 143.560 162.083,143.200 161.503,143.200 161.112 C 143.200 160.720,143.020 160.400,142.800 160.400 C 142.580 160.400,142.400 160.207,142.400 159.971 C 142.400 159.736,142.130 159.273,141.800 158.943 C 141.470 158.613,141.200 157.996,141.200 157.571 C 141.200 157.147,141.020 156.800,140.800 156.800 C 140.580 156.800,140.400 156.440,140.400 156.000 C 140.400 155.560,140.220 155.200,140.000 155.200 C 139.780 155.200,139.600 154.840,139.600 154.400 C 139.600 153.960,139.420 153.600,139.200 153.600 C 138.980 153.600,138.800 153.060,138.800 152.400 C 138.800 151.740,138.620 151.200,138.400 151.200 C 138.180 151.200,138.000 150.840,138.000 150.400 C 138.000 149.960,137.820 149.600,137.600 149.600 C 137.380 149.600,137.200 149.060,137.200 148.400 C 137.200 147.740,137.020 147.200,136.800 147.200 C 136.580 147.200,136.400 146.660,136.400 146.000 C 136.400 145.340,136.220 144.800,136.000 144.800 C 135.780 144.800,135.600 144.170,135.600 143.400 C 135.600 142.630,135.420 142.000,135.200 142.000 C 134.980 142.000,134.800 141.100,134.800 140.000 C 134.800 138.900,134.620 138.000,134.400 138.000 C 134.171 138.000,134.000 136.800,134.000 135.200 C 134.000 133.600,133.829 132.400,133.600 132.400 C 133.352 132.400,133.200 130.200,133.200 126.600 C 133.200 123.000,133.352 120.800,133.600 120.800 C 133.829 120.800,134.000 119.600,134.000 118.000 C 134.000 116.400,134.171 115.200,134.400 115.200 C 134.620 115.200,134.800 114.300,134.800 113.200 C 134.800 112.100,134.980 111.200,135.200 111.200 C 135.420 111.200,135.600 110.570,135.600 109.800 C 135.600 109.030,135.780 108.400,136.000 108.400 C 136.220 108.400,136.400 107.860,136.400 107.200 C 136.400 106.540,136.580 106.000,136.800 106.000 C 137.020 106.000,137.200 105.460,137.200 104.800 C 137.200 104.140,137.380 103.600,137.600 103.600 C 137.820 103.600,138.000 103.240,138.000 102.800 C 138.000 102.360,138.180 102.000,138.400 102.000 C 138.620 102.000,138.800 101.460,138.800 100.800 C 138.800 100.140,138.980 99.600,139.200 99.600 C 139.420 99.600,139.600 99.240,139.600 98.800 C 139.600 98.360,139.780 98.000,140.000 98.000 C 140.220 98.000,140.400 97.640,140.400 97.200 C 140.400 96.760,140.564 96.400,140.765 96.400 C 140.966 96.400,141.246 95.712,141.388 94.872 C 141.530 94.031,141.996 93.091,142.423 92.783 C 142.850 92.475,143.200 92.033,143.200 91.800 C 143.200 91.567,143.560 91.117,144.000 90.800 C 144.440 90.483,144.800 89.943,144.800 89.600 C 144.800 89.257,145.160 88.717,145.600 88.400 C 146.040 88.083,146.400 87.579,146.400 87.280 C 146.400 86.982,147.120 86.046,148.000 85.200 C 148.880 84.354,149.600 83.466,149.600 83.226 C 149.600 82.642,156.262 76.000,156.847 76.000 C 157.099 76.000,157.900 75.370,158.626 74.600 C 159.352 73.830,160.189 73.200,160.485 73.200 C 160.781 73.200,161.283 72.840,161.600 72.400 C 161.917 71.960,162.457 71.600,162.800 71.600 C 163.143 71.600,163.683 71.240,164.000 70.800 C 164.317 70.360,164.857 70.000,165.200 70.000 C 165.543 70.000,166.083 69.640,166.400 69.200 C 166.717 68.760,167.297 68.400,167.688 68.400 C 168.080 68.400,168.400 68.220,168.400 68.000 C 168.400 67.780,168.760 67.600,169.200 67.600 C 169.640 67.600,170.000 67.420,170.000 67.200 C 170.000 66.980,170.360 66.800,170.800 66.800 C 171.240 66.800,171.600 66.620,171.600 66.400 C 171.600 66.180,171.960 66.000,172.400 66.000 C 172.840 66.000,173.200 65.820,173.200 65.600 C 173.200 65.380,173.650 65.200,174.200 65.200 C 174.750 65.200,175.200 65.020,175.200 64.800 C 175.200 64.580,175.560 64.400,176.000 64.400 C 176.440 64.400,176.800 64.220,176.800 64.000 C 176.800 63.780,177.340 63.600,178.000 63.600 C 178.660 63.600,179.200 63.420,179.200 63.200 C 179.200 62.980,179.740 62.800,180.400 62.800 C 181.060 62.800,181.600 62.620,181.600 62.400 C 181.600 62.180,182.320 62.000,183.200 62.000 C 184.080 62.000,184.800 61.820,184.800 61.600 C 184.800 61.380,185.520 61.200,186.400 61.200 C 187.280 61.200,188.000 61.020,188.000 60.800 C 188.000 60.574,189.133 60.400,190.600 60.400 C 192.067 60.400,193.200 60.226,193.200 60.000 C 193.200 59.749,195.733 59.600,200.000 59.600 C 204.267 59.600,206.800 59.749,206.800 60.000 " stroke="none" fill="#3404fc" fill-rule="evenodd"></path><path id="path1" d="" stroke="none" fill="#3804fc" fill-rule="evenodd"></path><path id="path2" d="" stroke="none" fill="#3804fc" fill-rule="evenodd"></path><path id="path3" d="" stroke="none" fill="#3804fc" fill-rule="evenodd"></path><path id="path4" d="" stroke="none" fill="#3804fc" fill-rule="evenodd"></path></g></svg>